<?xml version="1.0" standalone="no"?><!DOCTYPE svg PUBLIC "-//W3C//DTD SVG 1.1//EN" "http://www.w3.org/Graphics/SVG/1.1/DTD/svg11.dtd"><svg t="1552226591301" class="icon" style="" viewBox="0 0 1024 1024" version="1.1" xmlns="http://www.w3.org/2000/svg" p-id="2554" xmlns:xlink="http://www.w3.org/1999/xlink" width="200" height="200"><defs><style type="text/css"></style></defs><path d="M64 512a448 448 0 1 0 896 0 448 448 0 1 0-896 0z" fill="#1E9CF0" p-id="2555"></path><path d="M326.988 457.489c-2.675 7.064 1.243 11.537 0 38.438-0.336 7.237-31.537 39.988-43.919 74.005-12.284 33.743-13.974 68.997 4.992 82.853 18.963 13.853 36.617-46.118 38.927-37.394a127.703 127.703 0 0 0 3.772 11.837c6.069 16.346 16.261 34.438 31.035 51.355 3.002 3.436-18.278 9.755-31.035 31.456-12.757 21.697 3.654 61.15 67.094 61.15 81.848 0 100.143-28.774 101.81-28.65 6.095 0.46 6.516 0 12.976 0 7.906 0 4.633 0.636 11.977 0 3.967-0.343 43.747 34.441 98.815 28.65 93.826-9.863 79.48-41.306 72.113-61.15-7.684-20.715-34.865-30.418-33.665-31.746 22.477-24.839 26.036-40.089 33.665-62.902 3.139-9.377 24.911 51.597 41.678 37.394 6.985-5.919 20.96-30.578 6.985-82.853-13.974-52.279-40.993-64.2-40.405-74.005 1.224-20.402 0.512-34.728-0.519-38.438-4.989-17.971-15.423-14.004-15.423-17.971 0-103.477-77.812-187.358-173.798-187.358-95.989 0-173.798 83.881-173.798 187.358-0.001 8.212-7.29 2.144-13.277 17.971z" fill="#FFFFFF" p-id="2556"></path></svg>