<?xml version="1.0" standalone="no"?><!DOCTYPE svg PUBLIC "-//W3C//DTD SVG 1.1//EN" "http://www.w3.org/Graphics/SVG/1.1/DTD/svg11.dtd"><svg t="1552225236512" class="icon" style="" viewBox="0 0 1239 1024" version="1.1" xmlns="http://www.w3.org/2000/svg" p-id="1100" xmlns:xlink="http://www.w3.org/1999/xlink" width="241.9921875" height="200"><defs><style type="text/css"></style></defs><path d="M1215.326316 646.736842c0-172.463158-172.463158-315.284211-363.789474-315.28421C646.736842 331.452632 485.052632 474.273684 485.052632 646.736842s161.684211 315.284211 363.789473 315.284211c43.115789 0 86.231579-10.778947 129.347369-21.557895l118.568421 64.673684-32.336842-107.789474c86.231579-64.673684 150.905263-150.905263 150.905263-250.610526z m-482.357895-53.894737c-21.557895 0-43.115789-21.557895-43.115789-43.115789s21.557895-43.115789 43.115789-43.11579c32.336842 0 53.894737 21.557895 53.894737 43.11579s-21.557895 43.115789-53.894737 43.115789z m234.442105 0c-21.557895 0-43.115789-21.557895-43.115789-43.115789s21.557895-43.115789 43.115789-43.11579c32.336842 0 53.894737 21.557895 53.894737 43.11579s-21.557895 43.115789-53.894737 43.115789z" fill="#111111" p-id="1101"></path><path d="M824.589474 309.894737c13.473684 0 26.947368 0 40.421052 2.694737C827.284211 137.431579 644.042105 5.389474 431.157895 5.389474 194.021053 5.389474 2.694737 167.073684 2.694737 374.568421c0 118.568421 64.673684 218.273684 172.463158 293.726316l-43.11579 132.042105 150.905263-75.452631c53.894737 10.778947 97.010526 21.557895 150.905264 21.557894 13.473684 0 26.947368 0 40.421052-2.694737-8.084211-29.642105-13.473684-59.284211-13.473684-91.621052-2.694737-188.631579 158.989474-342.231579 363.789474-342.231579zM592.842105 191.326316c32.336842 0 53.894737 21.557895 53.894737 53.894737s-21.557895 53.894737-53.894737 53.894736-64.673684-21.557895-64.673684-53.894736 32.336842-53.894737 64.673684-53.894737z m-299.115789 107.789473c-32.336842 0-64.673684-21.557895-64.673684-53.894736s32.336842-53.894737 64.673684-53.894737 53.894737 21.557895 53.894737 53.894737-21.557895 53.894737-53.894737 53.894736z" fill="#111111" p-id="1102"></path></svg>